<svg width="24" height="24" viewBox="0 0 24 24" fill="none" xmlns="http://www.w3.org/2000/svg">
<path d="M16.6168 1H7.39419C3.38819 1 1 3.387 1 7.391V16.598C1 20.613 3.38819 23 7.39419 23H16.6058C20.6118 23 23 20.613 23 16.609V7.391C23.011 3.387 20.6228 1 16.6168 1Z" fill="#B42318"/>
<path fill-rule="evenodd" clip-rule="evenodd" d="M11.4419 6.76976V19L4.928 17.0613C4.65978 16.9814 4.42464 16.8179 4.25748 16.5951C4.09032 16.3722 4.00002 16.1018 4 15.8239V6.29136C4.00033 6.09005 4.04802 5.89161 4.13927 5.7118C4.23051 5.532 4.36281 5.37581 4.52562 5.25566C4.68843 5.13551 4.87726 5.05471 5.07708 5.01971C5.27691 4.9847 5.48221 4.99645 5.67665 5.05401L11.4419 6.76976ZM12.5581 19V6.76976L18.3233 5.05401C18.5178 4.99645 18.7231 4.9847 18.9229 5.01971C19.1227 5.05471 19.3116 5.13551 19.4744 5.25566C19.6372 5.37581 19.7695 5.532 19.8607 5.7118C19.952 5.89161 19.9997 6.09005 20 6.29136V15.8239C20 16.1018 19.9097 16.3722 19.7425 16.5951C19.5754 16.8179 19.3402 16.9814 19.072 17.0613L12.5581 19ZM14.4439 14.3459L17.4207 13.46C17.5612 13.4217 17.7112 13.4394 17.8387 13.5093C17.9663 13.5793 18.0611 13.6959 18.1031 13.8344C18.1451 13.9728 18.1308 14.122 18.0634 14.2502C17.9959 14.3783 17.8806 14.4752 17.7421 14.5202L14.7654 15.4061C14.6249 15.4444 14.4748 15.4267 14.3473 15.3568C14.2198 15.2868 14.1249 15.1701 14.0829 15.0317C14.0409 14.8933 14.0552 14.744 14.1227 14.6159C14.1901 14.4878 14.3054 14.3909 14.4439 14.3459ZM9.2346 15.4061L6.25786 14.5202C6.11936 14.4752 6.00406 14.3783 5.93661 14.2502C5.86915 14.122 5.85489 13.9728 5.89687 13.8344C5.93886 13.6959 6.03374 13.5793 6.16127 13.5093C6.2888 13.4394 6.43884 13.4217 6.57935 13.46L9.55609 14.3459C9.6946 14.3909 9.80989 14.4878 9.87735 14.6159C9.9448 14.744 9.95906 14.8933 9.91708 15.0317C9.8751 15.1701 9.78021 15.2868 9.65268 15.3568C9.52516 15.4267 9.37511 15.4444 9.2346 15.4061ZM9.2346 12.7483L6.25786 11.8624C6.11936 11.8174 6.00406 11.7205 5.93661 11.5924C5.86915 11.4643 5.85489 11.315 5.89687 11.1766C5.93886 11.0381 6.03374 10.9215 6.16127 10.8515C6.2888 10.7816 6.43884 10.7639 6.57935 10.8022L9.55609 11.6881C9.6946 11.7331 9.80989 11.83 9.87735 11.9581C9.9448 12.0863 9.95906 12.2355 9.91708 12.3739C9.8751 12.5124 9.78021 12.629 9.65268 12.699C9.52516 12.7689 9.37511 12.7866 9.2346 12.7483ZM14.4439 11.6881L17.4207 10.8022C17.5612 10.7639 17.7112 10.7816 17.8387 10.8515C17.9663 10.9215 18.0611 11.0381 18.1031 11.1766C18.1451 11.315 18.1308 11.4643 18.0634 11.5924C17.9959 11.7205 17.8806 11.8174 17.7421 11.8624L14.7654 12.7483C14.6249 12.7866 14.4748 12.7689 14.3473 12.699C14.2198 12.629 14.1249 12.5124 14.0829 12.3739C14.0409 12.2355 14.0552 12.0863 14.1227 11.9581C14.1901 11.83 14.3054 11.7331 14.4439 11.6881ZM9.2346 10.0905L6.25786 9.20459C6.11936 9.15965 6.00406 9.06276 5.93661 8.93461C5.86915 8.80647 5.85489 8.65723 5.89687 8.5188C5.93886 8.38036 6.03374 8.2637 6.16127 8.19375C6.2888 8.12379 6.43884 8.10609 6.57935 8.14443L9.55609 9.03035C9.6946 9.07529 9.80989 9.17218 9.87735 9.30033C9.9448 9.42847 9.95906 9.57771 9.91708 9.71614C9.8751 9.85458 9.78021 9.97124 9.65268 10.0412C9.52516 10.1111 9.37511 10.1288 9.2346 10.0905ZM14.4439 9.03035L17.4207 8.14443C17.5612 8.10609 17.7112 8.12379 17.8387 8.19375C17.9663 8.2637 18.0611 8.38036 18.1031 8.5188C18.1451 8.65723 18.1308 8.80647 18.0634 8.93461C17.9959 9.06276 17.8806 9.15965 17.7421 9.20459L14.7654 10.0905C14.6249 10.1288 14.4748 10.1111 14.3473 10.0412C14.2198 9.97124 14.1249 9.85458 14.0829 9.71614C14.0409 9.57771 14.0552 9.42847 14.1227 9.30033C14.1901 9.17218 14.3054 9.07529 14.4439 9.03035Z" fill="#F04438"/>
</svg>
