<svg width="20" height="20" viewBox="0 0 20 20" fill="none" xmlns="http://www.w3.org/2000/svg">
<path d="M6.6665 13.3337V15.667C6.6665 16.6004 6.6665 17.0671 6.84816 17.4236C7.00795 17.7372 7.26292 17.9922 7.57652 18.152C7.93304 18.3337 8.39975 18.3337 9.33317 18.3337H15.6665C16.5999 18.3337 17.0666 18.3337 17.4232 18.152C17.7368 17.9922 17.9917 17.7372 18.1515 17.4236C18.3332 17.0671 18.3332 16.6004 18.3332 15.667V9.33366C18.3332 8.40024 18.3332 7.93353 18.1515 7.57701C17.9917 7.2634 17.7368 7.00844 17.4232 6.84865C17.0666 6.66699 16.5999 6.66699 15.6665 6.66699H13.3332M4.33317 13.3337H10.6665C11.5999 13.3337 12.0666 13.3337 12.4232 13.152C12.7368 12.9922 12.9917 12.7372 13.1515 12.4236C13.3332 12.0671 13.3332 11.6004 13.3332 10.667V4.33366C13.3332 3.40024 13.3332 2.93353 13.1515 2.57701C12.9917 2.2634 12.7368 2.00844 12.4232 1.84865C12.0666 1.66699 11.5999 1.66699 10.6665 1.66699H4.33317C3.39975 1.66699 2.93304 1.66699 2.57652 1.84865C2.26292 2.00844 2.00795 2.2634 1.84816 2.57701C1.6665 2.93353 1.6665 3.40024 1.6665 4.33366V10.667C1.6665 11.6004 1.6665 12.0671 1.84816 12.4236C2.00795 12.7372 2.26292 12.9922 2.57652 13.152C2.93304 13.3337 3.39975 13.3337 4.33317 13.3337Z" stroke="#667085" stroke-width="1.5" stroke-linecap="round" stroke-linejoin="round"/>
</svg>
