<svg width="22" height="22" viewBox="0 0 22 22" fill="none" xmlns="http://www.w3.org/2000/svg">
<path d="M15.6168 0H6.39419C2.38819 0 0 2.387 0 6.391V15.598C0 19.613 2.38819 22 6.39419 22H15.6058C19.6118 22 22 19.613 22 15.609V6.391C22.011 2.387 19.6228 0 15.6168 0Z" fill="#B2CCFF"/>
<path fill-rule="evenodd" clip-rule="evenodd" d="M12.7935 10.0417C12.1888 10.5667 12.1888 11.4326 12.7935 11.9583L12.8766 12.0297C14.4267 13.3765 15.6245 14.416 15.9845 16.5951C16.1138 17.363 15.3906 18 14.5198 18H7.48068C6.60983 18 5.88669 17.363 6.0144 16.5951C6.37597 14.416 7.573 13.3765 9.12314 12.0297L9.20546 11.9583C9.34873 11.835 9.46286 11.6865 9.54086 11.5217C9.61886 11.3569 9.65909 11.1794 9.65909 11C9.65909 10.8206 9.61886 10.6431 9.54086 10.4783C9.46286 10.3135 9.34873 10.165 9.20546 10.0417L9.12314 9.9703C7.573 8.6235 6.3752 7.584 6.0144 5.4049C5.88592 4.637 6.60906 4 7.47991 4H14.519C15.3899 4 16.113 4.637 15.9853 5.4049C15.6237 7.584 14.4267 8.6235 12.8766 9.9703L12.7935 10.0417ZM12.268 8.8531L12.2742 8.8489C13.4551 7.8878 14.3344 7.1724 14.449 5.4028C14.4524 5.35148 14.4425 5.30015 14.42 5.25296C14.3976 5.20578 14.3632 5.16407 14.3198 5.1312C14.2509 5.0784 14.1636 5.04962 14.0736 5.05H7.92534C7.81456 5.05 7.71455 5.092 7.64608 5.1606C7.58146 5.2236 7.54454 5.309 7.55069 5.4028C7.66532 7.1724 8.54386 7.8878 9.72474 8.8489C10.0371 9.103 10.371 9.3746 10.7171 9.6875C10.7924 9.75517 10.894 9.79312 10.9999 9.79312C11.1057 9.79312 11.2073 9.75517 11.2826 9.6875C11.6265 9.3767 11.958 9.1065 12.268 8.8531Z" fill="#0B3BEC"/>
</svg>
