<svg width="24" height="24" viewBox="0 0 24 24" fill="none" xmlns="http://www.w3.org/2000/svg">
<path d="M16.6168 1H7.39419C3.38819 1 1 3.387 1 7.391V16.598C1 20.613 3.38819 23 7.39419 23H16.6058C20.6118 23 23 20.613 23 16.609V7.391C23.011 3.387 20.6228 1 16.6168 1Z" fill="#0040C1"/>
<path fill-rule="evenodd" clip-rule="evenodd" d="M13.7935 11.0417C13.1888 11.5667 13.1888 12.4326 13.7935 12.9583L13.8766 13.0297C15.4267 14.3765 16.6245 15.416 16.9845 17.5951C17.1138 18.363 16.3906 19 15.5198 19H8.48068C7.60983 19 6.88669 18.363 7.0144 17.5951C7.37597 15.416 8.573 14.3765 10.1231 13.0297L10.2055 12.9583C10.3487 12.835 10.4629 12.6865 10.5409 12.5217C10.6189 12.3569 10.6591 12.1794 10.6591 12C10.6591 11.8206 10.6189 11.6431 10.5409 11.4783C10.4629 11.3135 10.3487 11.165 10.2055 11.0417L10.1231 10.9703C8.573 9.6235 7.3752 8.584 7.0144 6.4049C6.88592 5.637 7.60906 5 8.47991 5H15.519C16.3899 5 17.113 5.637 16.9853 6.4049C16.6237 8.584 15.4267 9.6235 13.8766 10.9703L13.7935 11.0417ZM13.268 9.8531L13.2742 9.8489C14.4551 8.8878 15.3344 8.1724 15.449 6.4028C15.4524 6.35148 15.4425 6.30015 15.42 6.25296C15.3976 6.20578 15.3632 6.16407 15.3198 6.1312C15.2509 6.0784 15.1636 6.04962 15.0736 6.05H8.92534C8.81456 6.05 8.71455 6.092 8.64608 6.1606C8.58146 6.2236 8.54454 6.309 8.55069 6.4028C8.66532 8.1724 9.54386 8.8878 10.7247 9.8489C11.0371 10.103 11.371 10.3746 11.7171 10.6875C11.7924 10.7552 11.894 10.7931 11.9999 10.7931C12.1057 10.7931 12.2073 10.7552 12.2826 10.6875C12.6265 10.3767 12.958 10.1065 13.268 9.8531Z" fill="#84ADFF"/>
</svg>
