<svg width="24" height="24" viewBox="0 0 24 24" fill="none" xmlns="http://www.w3.org/2000/svg">
<path d="M1 11.56C1 6.58195 1 4.09295 2.54648 2.54648C4.09295 1 6.58195 1 11.56 1H12.44C17.4181 1 19.907 1 21.4535 2.54648C23 4.09295 23 6.58195 23 11.56V12.44C23 17.4181 23 19.907 21.4535 21.4535C19.907 23 17.4181 23 12.44 23H11.56C6.58195 23 4.09295 23 2.54648 21.4535C1 19.907 1 17.4181 1 12.44V11.56Z" fill="black"/>
<path fill-rule="evenodd" clip-rule="evenodd" d="M11.7774 1C11.7254 5.52548 11.4295 8.05815 9.74382 9.74382C8.05815 11.4295 5.52548 11.7254 1 11.7774V12.4341C5.52548 12.4861 8.05815 12.782 9.74382 14.4677C11.4031 16.1269 11.7158 18.6068 11.7748 23H12.4368C12.4957 18.6068 12.8085 16.1269 14.4677 14.4677C16.1269 12.8085 18.6068 12.4957 23 12.4368V11.7747C18.6068 11.7158 16.1269 11.4031 14.4677 9.74382C12.782 8.05815 12.4861 5.52548 12.4341 1H11.7774Z" fill="white"/>
</svg>
