<svg width="24" height="24" viewBox="0 0 24 24" fill="none" xmlns="http://www.w3.org/2000/svg">
<path d="M1 11.56C1 6.58195 1 4.09295 2.54648 2.54648C4.09295 1 6.58195 1 11.56 1H12.44C17.4181 1 19.907 1 21.4535 2.54648C23 4.09295 23 6.58195 23 11.56V12.44C23 17.4181 23 19.907 21.4535 21.4535C19.907 23 17.4181 23 12.44 23H11.56C6.58195 23 4.09295 23 2.54648 21.4535C1 19.907 1 17.4181 1 12.44V11.56Z" fill="#B2CCFF"/>
<path d="M11.4673 5.59578C11.6384 5.25803 11.724 5.08916 11.8402 5.03521C11.9413 4.98826 12.0587 4.98826 12.1598 5.03521C12.276 5.08916 12.3616 5.25803 12.5327 5.59578L14.1567 8.80005C14.2072 8.89976 14.2325 8.94961 14.2694 8.98832C14.3021 9.02259 14.3413 9.05036 14.3848 9.07009C14.434 9.09237 14.4905 9.10041 14.6035 9.11649L18.236 9.63361C18.6185 9.68807 18.8097 9.7153 18.8982 9.80629C18.9752 9.88546 19.0115 9.99425 18.9968 10.1024C18.98 10.2266 18.8415 10.358 18.5646 10.6207L15.9371 13.1133C15.8552 13.191 15.8142 13.2298 15.7878 13.2761C15.7644 13.317 15.7494 13.362 15.7436 13.4085C15.737 13.461 15.7467 13.5159 15.766 13.6256L16.386 17.1463C16.4514 17.5176 16.4841 17.7033 16.4226 17.8135C16.3692 17.9093 16.2742 17.9765 16.164 17.9964C16.0375 18.0193 15.8663 17.9316 15.5239 17.7562L12.2765 16.0929C12.1754 16.0411 12.1248 16.0152 12.0715 16.005C12.0243 15.996 11.9757 15.996 11.9285 16.005C11.8752 16.0152 11.8247 16.0411 11.7235 16.0929L8.47609 17.7562C8.13373 17.9316 7.96254 18.0193 7.83597 17.9964C7.72584 17.9765 7.63081 17.9093 7.57736 17.8135C7.51591 17.7033 7.54861 17.5176 7.614 17.1463L8.23396 13.6256C8.25329 13.5159 8.26295 13.461 8.25642 13.4085C8.25063 13.362 8.23561 13.317 8.21222 13.2761C8.18579 13.2298 8.14484 13.191 8.06293 13.1133L5.43544 10.6207C5.15851 10.358 5.02005 10.2266 5.0032 10.1024C4.98854 9.99425 5.02476 9.88546 5.10177 9.80629C5.19028 9.7153 5.38153 9.68807 5.76405 9.63361L9.39651 9.11649C9.50948 9.10041 9.56596 9.09237 9.61515 9.07009C9.65871 9.05036 9.69792 9.02259 9.73061 8.98832C9.76753 8.94961 9.7928 8.89976 9.84333 8.80005L11.4673 5.59578Z" fill="#0B3BEC"/>
</svg>
