<svg width="20" height="21" viewBox="0 0 20 21" fill="none" xmlns="http://www.w3.org/2000/svg">
<path d="M6.5 11C6.5 11 7.8125 12.5 10 12.5C12.1875 12.5 13.5 11 13.5 11M12.75 6H12.76M7.25 6H7.26M5 16.5V18.8355C5 19.3684 5 19.6348 5.10923 19.7716C5.20422 19.8906 5.34827 19.9599 5.50054 19.9597C5.67563 19.9595 5.88367 19.7931 6.29976 19.4602L8.68521 17.5518C9.17252 17.162 9.41617 16.9671 9.68749 16.8285C9.9282 16.7055 10.1844 16.6156 10.4492 16.5613C10.7477 16.5 11.0597 16.5 11.6837 16.5H14.2C15.8802 16.5 16.7202 16.5 17.362 16.173C17.9265 15.8854 18.3854 15.4265 18.673 14.862C19 14.2202 19 13.3802 19 11.7V6.3C19 4.61984 19 3.77976 18.673 3.13803C18.3854 2.57354 17.9265 2.1146 17.362 1.82698C16.7202 1.5 15.8802 1.5 14.2 1.5H5.8C4.11984 1.5 3.27976 1.5 2.63803 1.82698C2.07354 2.1146 1.6146 2.57354 1.32698 3.13803C1 3.77976 1 4.61984 1 6.3V12.5C1 13.43 1 13.895 1.10222 14.2765C1.37962 15.3117 2.18827 16.1204 3.22354 16.3978C3.60504 16.5 4.07003 16.5 5 16.5ZM13.25 6C13.25 6.27614 13.0261 6.5 12.75 6.5C12.4739 6.5 12.25 6.27614 12.25 6C12.25 5.72386 12.4739 5.5 12.75 5.5C13.0261 5.5 13.25 5.72386 13.25 6ZM7.75 6C7.75 6.27614 7.52614 6.5 7.25 6.5C6.97386 6.5 6.75 6.27614 6.75 6C6.75 5.72386 6.97386 5.5 7.25 5.5C7.52614 5.5 7.75 5.72386 7.75 6Z" stroke="#98A2B3" stroke-width="1.5" stroke-linecap="round" stroke-linejoin="round"/>
</svg>
