<svg width="24" height="24" viewBox="0 0 24 24" fill="none" xmlns="http://www.w3.org/2000/svg">
<path d="M1 11.56C1 6.58195 1 4.09295 2.54648 2.54648C4.09295 1 6.58195 1 11.56 1H12.44C17.4181 1 19.907 1 21.4535 2.54648C23 4.09295 23 6.58195 23 11.56V12.44C23 17.4181 23 19.907 21.4535 21.4535C19.907 23 17.4181 23 12.44 23H11.56C6.58195 23 4.09295 23 2.54648 21.4535C1 19.907 1 17.4181 1 12.44V11.56Z" fill="url(#paint0_radial_8875_1876)"/>
<path d="M1 11.56C1 6.58195 1 4.09295 2.54648 2.54648C4.09295 1 6.58195 1 11.56 1H12.44C17.4181 1 19.907 1 21.4535 2.54648C23 4.09295 23 6.58195 23 11.56V12.44C23 17.4181 23 19.907 21.4535 21.4535C19.907 23 17.4181 23 12.44 23H11.56C6.58195 23 4.09295 23 2.54648 21.4535C1 19.907 1 17.4181 1 12.44V11.56Z" fill="url(#paint1_radial_8875_1876)"/>
<path d="M1 11.56C1 6.58195 1 4.09295 2.54648 2.54648C4.09295 1 6.58195 1 11.56 1H12.44C17.4181 1 19.907 1 21.4535 2.54648C23 4.09295 23 6.58195 23 11.56V12.44C23 17.4181 23 19.907 21.4535 21.4535C19.907 23 17.4181 23 12.44 23H11.56C6.58195 23 4.09295 23 2.54648 21.4535C1 19.907 1 17.4181 1 12.44V11.56Z" fill="url(#paint2_radial_8875_1876)"/>
<path d="M1 11.56C1 6.58195 1 4.09295 2.54648 2.54648C4.09295 1 6.58195 1 11.56 1H12.44C17.4181 1 19.907 1 21.4535 2.54648C23 4.09295 23 6.58195 23 11.56V12.44C23 17.4181 23 19.907 21.4535 21.4535C19.907 23 17.4181 23 12.44 23H11.56C6.58195 23 4.09295 23 2.54648 21.4535C1 19.907 1 17.4181 1 12.44V11.56Z" fill="url(#paint3_radial_8875_1876)"/>
<path d="M12.0044 3.82495C9.78293 3.82495 9.50414 3.83465 8.63163 3.87433C7.76083 3.91418 7.16643 4.05194 6.64633 4.25408C6.10834 4.46284 5.65198 4.74211 5.19732 5.1966C4.74233 5.65093 4.46285 6.10694 4.25324 6.64436C4.05045 7.16425 3.91241 7.75837 3.87322 8.62819C3.8342 9.50004 3.82397 9.7788 3.82397 11.9986C3.82397 14.2185 3.83386 14.4962 3.87339 15.3681C3.91344 16.2382 4.05131 16.8322 4.25341 17.3519C4.46251 17.8895 4.74198 18.3455 5.19681 18.7998C5.6513 19.2545 6.10766 19.5344 6.64531 19.7432C7.16574 19.9453 7.76032 20.0831 8.63095 20.123C9.50346 20.1626 9.78208 20.1723 12.0034 20.1723C14.2251 20.1723 14.503 20.1626 15.3755 20.1229C16.2463 20.0831 16.8414 19.9453 17.3618 19.7432C17.8996 19.5344 18.3553 19.2545 18.8098 18.7998C19.2648 18.3455 19.5443 17.8895 19.7539 17.3521C19.955 16.8322 20.093 16.2381 20.1339 15.3682C20.1731 14.4964 20.1833 14.2185 20.1833 11.9986C20.1833 9.7788 20.1731 9.50022 20.1339 8.62836C20.093 7.75819 19.955 7.16425 19.7539 6.64454C19.5443 6.10694 19.2648 5.65092 18.8098 5.1966C18.3548 4.74193 17.8998 4.46267 17.3613 4.25407C16.8399 4.05194 16.2451 3.91418 15.3743 3.87433C14.5018 3.83465 14.224 3.82495 12.0019 3.82495H12.0044ZM11.2706 5.29792C11.4884 5.29758 11.7314 5.29792 12.0044 5.29792C14.1884 5.29792 14.4473 5.30575 15.3097 5.34492C16.1073 5.38136 16.5401 5.51452 16.8284 5.6264C17.2102 5.77454 17.4823 5.95164 17.7684 6.23772C18.0547 6.5238 18.2319 6.79626 18.3805 7.17769C18.4925 7.46547 18.6259 7.898 18.6622 8.69494C18.7014 9.55658 18.71 9.81541 18.71 11.9968C18.71 14.1781 18.7014 14.437 18.6622 15.2986C18.6258 16.0955 18.4925 16.5281 18.3805 16.8158C18.2323 17.1973 18.0547 17.4689 17.7684 17.7548C17.4821 18.0409 17.2103 18.218 16.8284 18.3661C16.5404 18.4785 16.1073 18.6113 15.3097 18.6478C14.4474 18.6869 14.1884 18.6954 12.0044 18.6954C9.82025 18.6954 9.5614 18.6869 8.69911 18.6478C7.90159 18.611 7.46875 18.4778 7.18023 18.3659C6.79851 18.2178 6.52585 18.0407 6.23956 17.7546C5.95327 17.4685 5.77604 17.1968 5.62744 16.8152C5.51548 16.5274 5.38205 16.0948 5.34575 15.2979C5.30656 14.4363 5.29872 14.1774 5.29872 11.9947C5.29872 9.81201 5.30656 9.55453 5.34575 8.6929C5.38222 7.89596 5.51548 7.46344 5.62744 7.17531C5.7757 6.79387 5.95327 6.52142 6.23956 6.23534C6.52585 5.94926 6.79851 5.77217 7.18023 5.62368C7.46857 5.51128 7.90159 5.37847 8.69911 5.34185C9.45369 5.30779 9.74612 5.29758 11.2706 5.29587L11.2706 5.29792ZM16.3707 6.65509C15.8288 6.65509 15.3891 7.09392 15.3891 7.63559C15.3891 8.1771 15.8288 8.61644 16.3707 8.61644C16.9126 8.61644 17.3523 8.1771 17.3523 7.63559C17.3523 7.09409 16.9126 6.65476 16.3707 6.65476L16.3707 6.65509ZM12.0044 7.80111C9.6846 7.80111 7.80377 9.68055 7.80377 11.9986C7.80377 14.3167 9.6846 16.1953 12.0044 16.1953C14.3242 16.1953 16.2044 14.3167 16.2044 11.9986C16.2044 9.68055 14.3241 7.80111 12.0043 7.80111H12.0044ZM12.0044 9.27408C13.5102 9.27408 14.731 10.4938 14.731 11.9986C14.731 13.5033 13.5102 14.7232 12.0044 14.7232C10.4985 14.7232 9.27783 13.5033 9.27783 11.9986C9.27783 10.4938 10.4985 9.27408 12.0044 9.27408Z" fill="white"/>
<defs>
<radialGradient id="paint0_radial_8875_1876" cx="0" cy="0" r="1" gradientUnits="userSpaceOnUse" gradientTransform="translate(22.2896 11.3117) rotate(164.25) scale(14.0568 10.1272)">
<stop stop-color="#FF005F"/>
<stop offset="1" stop-color="#FC01D8"/>
</radialGradient>
<radialGradient id="paint1_radial_8875_1876" cx="0" cy="0" r="1" gradientUnits="userSpaceOnUse" gradientTransform="translate(6.84358 24.6944) rotate(-90) scale(17.5608 18.6317)">
<stop stop-color="#FFCC00"/>
<stop offset="0.1242" stop-color="#FFCC00"/>
<stop offset="0.5672" stop-color="#FE4A05"/>
<stop offset="0.6942" stop-color="#FF0F3F"/>
<stop offset="1" stop-color="#FE0657" stop-opacity="0"/>
</radialGradient>
<radialGradient id="paint2_radial_8875_1876" cx="0" cy="0" r="1" gradientUnits="userSpaceOnUse" gradientTransform="translate(12.5559 22.6897) rotate(-59.8703) scale(7.26155 9.45372)">
<stop stop-color="#FFCC00"/>
<stop offset="1" stop-color="#FFCC00" stop-opacity="0"/>
</radialGradient>
<radialGradient id="paint3_radial_8875_1876" cx="0" cy="0" r="1" gradientUnits="userSpaceOnUse" gradientTransform="translate(3.98493 1.89583) rotate(164.274) scale(13.9008 4.736)">
<stop stop-color="#780CFF"/>
<stop offset="1" stop-color="#820BFF" stop-opacity="0"/>
</radialGradient>
</defs>
</svg>
