<svg width="22" height="23" viewBox="0 0 22 23" fill="none" xmlns="http://www.w3.org/2000/svg">
<path d="M7.46445 7.96448L3.92893 4.42896M3.92893 18.5711L7.46448 15.0355M14.5355 15.0355L18.0711 18.571M18.0711 4.42891L14.5355 7.96445M21 11.5C21 17.0228 16.5228 21.5 11 21.5C5.47715 21.5 1 17.0228 1 11.5C1 5.97715 5.47715 1.5 11 1.5C16.5228 1.5 21 5.97715 21 11.5ZM16 11.5C16 14.2614 13.7614 16.5 11 16.5C8.23858 16.5 6 14.2614 6 11.5C6 8.73858 8.23858 6.5 11 6.5C13.7614 6.5 16 8.73858 16 11.5Z" stroke="#98A2B3" stroke-width="1.5" stroke-linecap="round" stroke-linejoin="round"/>
</svg>
