<svg width="24" height="24" viewBox="0 0 24 24" fill="none" xmlns="http://www.w3.org/2000/svg">
<path d="M16.6168 1H7.39419C3.38819 1 1 3.387 1 7.391V16.598C1 20.613 3.38819 23 7.39419 23H16.6058C20.6118 23 23 20.613 23 16.609V7.391C23.011 3.387 20.6228 1 16.6168 1Z" fill="#B2CCFF"/>
<mask id="mask0_8875_2765" style="mask-type:alpha" maskUnits="userSpaceOnUse" x="1" y="1" width="22" height="22">
<path d="M16.6168 1H7.39419C3.38819 1 1 3.387 1 7.391V16.598C1 20.613 3.38819 23 7.39419 23H16.6058C20.6118 23 23 20.613 23 16.609V7.391C23.011 3.387 20.6228 1 16.6168 1Z" fill="#B2CCFF"/>
</mask>
<g mask="url(#mask0_8875_2765)">
<path fill-rule="evenodd" clip-rule="evenodd" d="M18 19.5001C18 19.5 18 19.5001 18 19.5001V7.5C18 7.10218 17.842 6.72064 17.5607 6.43934C17.2794 6.15804 16.8978 6 16.5 6H7.5C7.10218 6 6.72064 6.15804 6.43934 6.43934C6.15804 6.72064 6 7.10218 6 7.5V19.5C6 19.5 6 19.5 6 19.5V22.5001C6 22.8979 6.15804 23.2794 6.43934 23.5607C6.72064 23.842 7.10218 24.0001 7.5 24.0001H16.5C16.8978 24.0001 17.2794 23.842 17.5607 23.5607C17.842 23.2794 18 22.8979 18 22.5001V19.5001ZM9 9H12C12.1326 9 12.2598 9.05268 12.3536 9.14645C12.4473 9.24021 12.5 9.36739 12.5 9.5C12.5 9.63261 12.4473 9.75979 12.3536 9.85355C12.2598 9.94732 12.1326 10 12 10H9C8.86739 10 8.74021 9.94732 8.64645 9.85355C8.55268 9.75979 8.5 9.63261 8.5 9.5C8.5 9.36739 8.55268 9.24021 8.64645 9.14645C8.74021 9.05268 8.86739 9 9 9ZM8.64645 11.1464C8.74021 11.0527 8.86739 11 9 11H15C15.1326 11 15.2598 11.0527 15.3536 11.1464C15.4473 11.2402 15.5 11.3674 15.5 11.5C15.5 11.6326 15.4473 11.7598 15.3536 11.8536C15.2598 11.9473 15.1326 12 15 12H9C8.86739 12 8.74021 11.9473 8.64645 11.8536C8.55268 11.7598 8.5 11.6326 8.5 11.5C8.5 11.3674 8.55268 11.2402 8.64645 11.1464ZM8.64645 13.1464C8.74021 13.0527 8.86739 13 9 13H15C15.1326 13 15.2598 13.0527 15.3536 13.1464C15.4473 13.2402 15.5 13.3674 15.5 13.5C15.5 13.6326 15.4473 13.7598 15.3536 13.8536C15.2598 13.9473 15.1326 14 15 14H9C8.86739 14 8.74021 13.9473 8.64645 13.8536C8.55268 13.7598 8.5 13.6326 8.5 13.5C8.5 13.3674 8.55268 13.2402 8.64645 13.1464ZM8.64645 15.1464C8.74021 15.0527 8.86739 15 9 15H15C15.1326 15 15.2598 15.0527 15.3536 15.1464C15.4473 15.2402 15.5 15.3674 15.5 15.5C15.5 15.6326 15.4473 15.7598 15.3536 15.8536C15.2598 15.9473 15.1326 16 15 16H9C8.86739 16 8.74021 15.9473 8.64645 15.8536C8.55268 15.7598 8.5 15.6326 8.5 15.5C8.5 15.3674 8.55268 15.2402 8.64645 15.1464ZM8.64645 17.1464C8.74021 17.0527 8.86739 17 9 17H15C15.1326 17 15.2598 17.0527 15.3536 17.1464C15.4473 17.2402 15.5 17.3674 15.5 17.5C15.5 17.6326 15.4473 17.7598 15.3536 17.8536C15.2598 17.9473 15.1326 18 15 18H9C8.86739 18 8.74021 17.9473 8.64645 17.8536C8.55268 17.7598 8.5 17.6326 8.5 17.5C8.5 17.3674 8.55268 17.2402 8.64645 17.1464ZM8.64645 19.1465C8.74021 19.0527 8.86739 19.0001 9 19.0001H15C15.1326 19.0001 15.2598 19.0527 15.3536 19.1465C15.4473 19.2403 15.5 19.3675 15.5 19.5001C15.5 19.6327 15.4473 19.7598 15.3536 19.8536C15.2598 19.9474 15.1326 20.0001 15 20.0001H9C8.86739 20.0001 8.74021 19.9474 8.64645 19.8536C8.55268 19.7598 8.5 19.6327 8.5 19.5001C8.5 19.3675 8.55268 19.2403 8.64645 19.1465ZM8.64645 21.1465C8.74021 21.0527 8.86739 21.0001 9 21.0001H15C15.1326 21.0001 15.2598 21.0527 15.3536 21.1465C15.4473 21.2403 15.5 21.3675 15.5 21.5001C15.5 21.6327 15.4473 21.7598 15.3536 21.8536C15.2598 21.9474 15.1326 22.0001 15 22.0001H9C8.86739 22.0001 8.74021 21.9474 8.64645 21.8536C8.55268 21.7598 8.5 21.6327 8.5 21.5001C8.5 21.3675 8.55268 21.2403 8.64645 21.1465Z" fill="#0B3BEC"/>
</g>
</svg>
