<svg width="20" height="20" viewBox="0 0 20 20" fill="none" xmlns="http://www.w3.org/2000/svg">
<path d="M10.0001 5.83366H6.25008C5.69755 5.83366 5.16764 5.61417 4.77694 5.22346C4.38624 4.83276 4.16675 4.30286 4.16675 3.75033C4.16675 3.19779 4.38624 2.66789 4.77694 2.27719C5.16764 1.88649 5.69755 1.66699 6.25008 1.66699C9.16675 1.66699 10.0001 5.83366 10.0001 5.83366ZM10.0001 5.83366H13.7501C14.3026 5.83366 14.8325 5.61417 15.2232 5.22346C15.6139 4.83276 15.8334 4.30286 15.8334 3.75033C15.8334 3.19779 15.6139 2.66789 15.2232 2.27719C14.8325 1.88649 14.3026 1.66699 13.7501 1.66699C10.8334 1.66699 10.0001 5.83366 10.0001 5.83366ZM10.0001 5.83366L10.0001 18.3337M1.66675 11.667H18.3334M1.66675 8.50033L1.66675 15.667C1.66675 16.6004 1.66675 17.0671 1.8484 17.4236C2.00819 17.7372 2.26316 17.9922 2.57676 18.152C2.93328 18.3337 3.39999 18.3337 4.33341 18.3337L15.6667 18.3337C16.6002 18.3337 17.0669 18.3337 17.4234 18.152C17.737 17.9922 17.992 17.7372 18.1518 17.4236C18.3334 17.0671 18.3334 16.6004 18.3334 15.667V8.50033C18.3334 7.56691 18.3334 7.1002 18.1518 6.74368C17.992 6.43007 17.737 6.17511 17.4234 6.01532C17.0669 5.83366 16.6002 5.83366 15.6667 5.83366L4.33342 5.83366C3.39999 5.83366 2.93328 5.83366 2.57676 6.01531C2.26316 6.1751 2.00819 6.43007 1.8484 6.74367C1.66675 7.10019 1.66675 7.5669 1.66675 8.50033Z" stroke="#0B3BEC" stroke-width="1.5" stroke-linecap="round" stroke-linejoin="round"/>
</svg>
