<svg width="24" height="24" viewBox="0 0 24 24" fill="none" xmlns="http://www.w3.org/2000/svg">
<mask id="mask0_8875_1995" style="mask-type:luminance" maskUnits="userSpaceOnUse" x="1" y="5" width="22" height="15">
<path d="M22.5 5.25H1.5V19.5H22.5V5.25Z" fill="white"/>
</mask>
<g mask="url(#mask0_8875_1995)">
<mask id="mask1_8875_1995" style="mask-type:luminance" maskUnits="userSpaceOnUse" x="1" y="5" width="22" height="15">
<path d="M22.4993 5.25H1.49927V19.5H22.4993V5.25Z" fill="white"/>
</mask>
<g mask="url(#mask1_8875_1995)">
<path d="M7.53391 5.25C7.52716 5.25 7.52044 5.25002 7.51369 5.25006L7.48608 7.57924C7.49239 7.57918 7.49872 7.57912 7.50504 7.57912C9.00641 7.57912 10.171 8.78792 12.7021 13.1415L12.8564 13.4065L12.8665 13.4239L14.2835 11.253L14.2737 11.2363C13.9402 10.6825 13.6198 10.1729 13.3126 9.70767C12.9563 9.16859 12.6155 8.68701 12.2848 8.25704C10.6104 6.08001 9.20971 5.25 7.53391 5.25Z" fill="url(#paint0_linear_8875_1995)"/>
<path d="M7.51366 5.25006C5.82974 5.25891 4.34102 6.37081 3.26603 8.07226C3.26289 8.07723 3.25975 8.08222 3.25659 8.08722L5.22984 9.18393C5.23305 9.17897 5.23627 9.174 5.23948 9.16907C5.86722 8.20397 6.64839 7.58842 7.48606 7.57926C7.49238 7.57918 7.49869 7.57912 7.50501 7.57912L7.53388 5.25C7.52713 5.25 7.52041 5.25002 7.51366 5.25006Z" fill="url(#paint1_linear_8875_1995)"/>
<path d="M3.26506 8.07227C3.2619 8.07724 3.25876 8.08223 3.25561 8.08723C2.54924 9.21007 2.02264 10.5879 1.73806 12.0744C1.73683 12.0808 1.7356 12.0873 1.73438 12.0937L3.95125 12.6278C3.95241 12.6214 3.95357 12.6149 3.95474 12.6085C4.19169 11.3021 4.64282 10.0905 5.22886 9.18394C5.23205 9.17898 5.23528 9.17401 5.2385 9.16908L3.26506 8.07227Z" fill="url(#paint2_linear_8875_1995)"/>
<path d="M3.95543 12.6083L1.73875 12.0742C1.73752 12.0807 1.73629 12.0871 1.73507 12.0935C1.57989 12.911 1.50094 13.7417 1.49928 14.5744C1.49927 14.5811 1.49927 14.5878 1.49927 14.5946L3.77275 14.8023C3.77258 14.7955 3.7724 14.7888 3.77224 14.782C3.77112 14.7338 3.77055 14.6848 3.77053 14.6352C3.77166 13.9618 3.83238 13.2899 3.95194 12.6277C3.9531 12.6212 3.95426 12.6148 3.95543 12.6083Z" fill="url(#paint3_linear_8875_1995)"/>
<path d="M3.8419 15.5266C3.80112 15.2873 3.778 15.0452 3.77274 14.8023C3.77257 14.7956 3.77238 14.7889 3.77222 14.7821L1.49928 14.5745C1.49927 14.5812 1.49927 14.5879 1.49927 14.5947C1.49927 15.1129 1.54159 15.5994 1.62385 16.0477C1.62504 16.0542 1.62621 16.0605 1.62741 16.067L3.84533 15.546C3.84416 15.5396 3.84303 15.5331 3.8419 15.5266Z" fill="url(#paint4_linear_8875_1995)"/>
<path d="M4.35981 16.7282C4.11241 16.4524 3.93733 16.0547 3.84528 15.546C3.84411 15.5396 3.84298 15.5331 3.84185 15.5266L1.62378 16.0477C1.62497 16.0541 1.62614 16.0605 1.62735 16.067C1.79499 16.9658 2.12379 17.7149 2.59464 18.2816C2.59883 18.2867 2.60302 18.2916 2.60724 18.2967L4.37301 16.7427C4.3686 16.7379 4.36417 16.733 4.35981 16.7282Z" fill="url(#paint5_linear_8875_1995)"/>
<path d="M10.9313 10.2854C9.59471 12.3789 8.78501 13.6919 8.78501 13.6919C7.00453 16.5419 6.38859 17.1807 5.3973 17.1807C4.98366 17.1807 4.63809 17.0303 4.37336 16.7428C4.36894 16.738 4.3645 16.7331 4.36014 16.7283L2.59497 18.2817C2.59916 18.2868 2.60336 18.2917 2.60757 18.2968C3.25771 19.0706 4.1754 19.4999 5.31068 19.4999C7.02828 19.4999 8.26357 18.6731 10.4596 14.7533C10.4596 14.7533 11.3751 13.1025 12.0048 11.9654C11.6147 11.3223 11.2597 10.7655 10.9313 10.2854Z" fill="#0082FB"/>
<path d="M13.3141 6.98096C13.3096 6.98585 13.305 6.99084 13.3005 6.99573C12.9495 7.37761 12.6126 7.80405 12.2849 8.25651C12.6156 8.68648 12.957 9.16899 13.3133 9.70806C13.7333 9.0462 14.1253 8.51015 14.5095 8.09928C14.514 8.0944 14.5185 8.08967 14.5231 8.08484L13.3141 6.98096Z" fill="url(#paint6_linear_8875_1995)"/>
<path d="M19.802 6.77584C18.8699 5.81424 17.7584 5.25 16.5702 5.25C15.3174 5.25 14.2635 5.95109 13.3129 6.98105C13.3084 6.98594 13.3038 6.99094 13.2993 6.99583L14.5083 8.09938C14.5128 8.0945 14.5174 8.08977 14.5219 8.08493C15.1481 7.41983 15.7541 7.08775 16.4258 7.08775C17.1489 7.08775 17.8259 7.43532 18.412 8.04464C18.4167 8.04943 18.4212 8.05415 18.4259 8.05896L19.8159 6.79016C19.8113 6.78537 19.8066 6.78062 19.802 6.77584Z" fill="#0082FB"/>
<path d="M22.4978 14.268C22.4455 11.1805 21.3874 8.42023 19.8169 6.79019C19.8122 6.78539 19.8075 6.78065 19.803 6.77588L18.4131 8.04467C18.4176 8.04945 18.4223 8.05418 18.4268 8.05899C19.6083 9.29829 20.4187 11.6034 20.4925 14.2673C20.4926 14.274 20.4929 14.2807 20.493 14.2875L22.4981 14.2881C22.498 14.2814 22.4978 14.2747 22.4978 14.268Z" fill="url(#paint7_linear_8875_1995)"/>
<path d="M22.4972 14.2879C22.497 14.2812 22.497 14.2745 22.4969 14.2678L20.4915 14.2671C20.4918 14.2738 20.4919 14.2805 20.4922 14.2872C20.4954 14.4122 20.497 14.538 20.497 14.6646C20.497 15.3909 20.3908 15.978 20.1748 16.4019C20.1716 16.4082 20.1682 16.4145 20.165 16.4207L21.6601 18.0085C21.6638 18.0028 21.6674 17.997 21.6712 17.9911C22.2139 17.136 22.4989 15.948 22.4989 14.5073C22.4989 14.434 22.4984 14.3608 22.4972 14.2879Z" fill="url(#paint8_linear_8875_1995)"/>
<path d="M20.1749 16.4021C20.1717 16.4084 20.1683 16.4147 20.1651 16.4209C19.9781 16.7782 19.7113 17.0165 19.3623 17.1207L20.044 19.3141C20.1343 19.2828 20.2221 19.2477 20.3076 19.2087C20.3331 19.197 20.3584 19.1852 20.3836 19.1729C20.3981 19.1658 20.4124 19.1586 20.4268 19.1514C20.8775 18.922 21.2583 18.5836 21.5663 18.1478C21.5852 18.1212 21.6038 18.0944 21.622 18.067C21.6349 18.0477 21.6476 18.0284 21.6602 18.0087C21.6639 18.003 21.6675 17.9972 21.6713 17.9914L20.1749 16.4021Z" fill="url(#paint9_linear_8875_1995)"/>
<path d="M18.9291 17.1807C18.7006 17.1807 18.4988 17.1459 18.3016 17.0559L17.6038 19.3015C17.996 19.4383 18.4143 19.5001 18.881 19.5001C19.3109 19.5001 19.7055 19.4342 20.0633 19.3077L19.3819 17.115C19.235 17.16 19.0825 17.1821 18.9291 17.1807Z" fill="url(#paint10_linear_8875_1995)"/>
<path d="M17.5328 16.4125C17.5285 16.4074 17.5241 16.4023 17.5199 16.3972L15.9141 18.1025C15.9186 18.1074 15.923 18.1124 15.9275 18.1172C16.4854 18.7244 17.0182 19.1011 17.6225 19.3078L18.3199 17.0638C18.0652 16.9522 17.8189 16.7497 17.5328 16.4125Z" fill="url(#paint11_linear_8875_1995)"/>
<path d="M17.5194 16.3974C17.0377 15.8254 16.4419 14.8731 15.5046 13.3332L14.2832 11.2531L14.2734 11.2363L12.8562 13.4066L12.8663 13.424L13.7317 14.9106C14.5706 16.3441 15.2541 17.3811 15.9136 18.1027C15.9181 18.1076 15.9225 18.1126 15.927 18.1174L17.5323 16.4127C17.5281 16.4076 17.5237 16.4025 17.5194 16.3974Z" fill="url(#paint12_linear_8875_1995)"/>
</g>
</g>
<defs>
<linearGradient id="paint0_linear_8875_1995" x1="13.3416" y1="12.5411" x2="8.51246" y2="6.34408" gradientUnits="userSpaceOnUse">
<stop offset="0.0006" stop-color="#0867DF"/>
<stop offset="0.4539" stop-color="#0668E1"/>
<stop offset="0.8591" stop-color="#0064E0"/>
</linearGradient>
<linearGradient id="paint1_linear_8875_1995" x1="4.18346" y1="8.46363" x2="7.45751" y2="6.02943" gradientUnits="userSpaceOnUse">
<stop offset="0.1323" stop-color="#0064DF"/>
<stop offset="0.9988" stop-color="#0064E0"/>
</linearGradient>
<linearGradient id="paint2_linear_8875_1995" x1="2.81554" y1="12.1325" x2="4.15666" y2="8.82637" gradientUnits="userSpaceOnUse">
<stop offset="0.0147" stop-color="#0072EC"/>
<stop offset="0.6881" stop-color="#0064DF"/>
</linearGradient>
<linearGradient id="paint3_linear_8875_1995" x1="2.64054" y1="14.5346" x2="2.79659" y2="12.5042" gradientUnits="userSpaceOnUse">
<stop offset="0.0731" stop-color="#007CF6"/>
<stop offset="0.9943" stop-color="#0072EC"/>
</linearGradient>
<linearGradient id="paint4_linear_8875_1995" x1="2.72286" y1="15.6379" x2="2.6113" y2="14.8248" gradientUnits="userSpaceOnUse">
<stop offset="0.0731" stop-color="#007FF9"/>
<stop offset="1" stop-color="#007CF6"/>
</linearGradient>
<linearGradient id="paint5_linear_8875_1995" x1="2.65995" y1="15.8516" x2="3.35036" y2="17.2857" gradientUnits="userSpaceOnUse">
<stop offset="0.0731" stop-color="#007FF9"/>
<stop offset="1" stop-color="#0082FB"/>
</linearGradient>
<linearGradient id="paint6_linear_8875_1995" x1="12.9167" y1="8.85881" x2="13.8233" y2="7.63095" gradientUnits="userSpaceOnUse">
<stop offset="0.2799" stop-color="#007FF8"/>
<stop offset="0.9141" stop-color="#0082FB"/>
</linearGradient>
<linearGradient id="paint7_linear_8875_1995" x1="19.6237" y1="7.24424" x2="21.5424" y2="14.1562" gradientUnits="userSpaceOnUse">
<stop stop-color="#0082FB"/>
<stop offset="0.9995" stop-color="#0081FA"/>
</linearGradient>
<linearGradient id="paint8_linear_8875_1995" x1="21.9139" y1="14.4415" x2="20.7062" y2="16.8315" gradientUnits="userSpaceOnUse">
<stop offset="0.0619" stop-color="#0081FA"/>
<stop offset="1" stop-color="#0080F9"/>
</linearGradient>
<linearGradient id="paint9_linear_8875_1995" x1="19.8179" y1="18.1295" x2="20.9239" y2="17.3917" gradientUnits="userSpaceOnUse">
<stop stop-color="#027AF3"/>
<stop offset="1" stop-color="#0080F9"/>
</linearGradient>
<linearGradient id="paint10_linear_8875_1995" x1="18.1062" y1="18.278" x2="19.6234" y2="18.278" gradientUnits="userSpaceOnUse">
<stop stop-color="#0377EF"/>
<stop offset="0.9994" stop-color="#0279F1"/>
</linearGradient>
<linearGradient id="paint11_linear_8875_1995" x1="16.7874" y1="17.4246" x2="17.8897" y2="18.0597" gradientUnits="userSpaceOnUse">
<stop offset="0.0019" stop-color="#0471E9"/>
<stop offset="1" stop-color="#0377EF"/>
</linearGradient>
<linearGradient id="paint12_linear_8875_1995" x1="13.4598" y1="12.5932" x2="17.0437" y2="17.0059" gradientUnits="userSpaceOnUse">
<stop offset="0.2765" stop-color="#0867DF"/>
<stop offset="1" stop-color="#0471E9"/>
</linearGradient>
</defs>
</svg>
