<svg width="24" height="24" viewBox="0 0 24 24" fill="none" xmlns="http://www.w3.org/2000/svg">
<path d="M12 23C18.0751 23 23 18.0751 23 12C23 5.92487 18.0751 1 12 1C5.92487 1 1 5.92487 1 12C1 18.0751 5.92487 23 12 23Z" fill="#FF4500"/>
<path d="M19.3336 12.0001C19.3336 11.1124 18.6131 10.3919 17.7254 10.3919C17.2879 10.3919 16.902 10.5592 16.6189 10.8422C15.5254 10.0574 14.0072 9.54279 12.3347 9.47846L13.0681 6.04337L15.4482 6.54512C15.4739 7.1498 15.9757 7.63869 16.5932 7.63869C17.2236 7.63869 17.7382 7.12407 17.7382 6.49366C17.7382 5.86325 17.2236 5.34863 16.5932 5.34863C16.1429 5.34863 15.757 5.60594 15.5768 5.99191L12.9137 5.42583C12.8365 5.41296 12.7593 5.42583 12.695 5.46442C12.6306 5.50302 12.592 5.56735 12.5663 5.64454L11.7558 9.47846C10.0447 9.52992 8.51368 10.0317 7.40725 10.8422C7.12421 10.572 6.72538 10.3919 6.30081 10.3919C5.41309 10.3919 4.69263 11.1124 4.69263 12.0001C4.69263 12.6562 5.07859 13.2095 5.64467 13.4668C5.61894 13.6211 5.60608 13.7884 5.60608 13.9557C5.60608 16.4258 8.47508 18.42 12.026 18.42C15.5768 18.42 18.4458 16.4258 18.4458 13.9557C18.4458 13.7884 18.433 13.634 18.4072 13.4796C18.9347 13.2223 19.3336 12.6562 19.3336 12.0001ZM8.33356 13.1451C8.33356 12.5147 8.84818 12.0001 9.47859 12.0001C10.109 12.0001 10.6236 12.5147 10.6236 13.1451C10.6236 13.7755 10.109 14.2902 9.47859 14.2902C8.84818 14.2902 8.33356 13.7755 8.33356 13.1451ZM14.7277 16.1685C13.9429 16.9533 12.4505 17.0048 12.0131 17.0048C11.5757 17.0048 10.0704 16.9404 9.29847 16.1685C9.18268 16.0527 9.18268 15.8597 9.29847 15.744C9.41426 15.6282 9.60725 15.6282 9.72304 15.744C10.2119 16.2328 11.2669 16.413 12.026 16.413C12.785 16.413 13.8271 16.2328 14.3289 15.744C14.4447 15.6282 14.6377 15.6282 14.7534 15.744C14.8435 15.8726 14.8435 16.0527 14.7277 16.1685ZM14.5219 14.2902C13.8915 14.2902 13.3768 13.7755 13.3768 13.1451C13.3768 12.5147 13.8915 12.0001 14.5219 12.0001C15.1523 12.0001 15.6669 12.5147 15.6669 13.1451C15.6669 13.7755 15.1523 14.2902 14.5219 14.2902Z" fill="white"/>
</svg>
