<svg width="24" height="24" viewBox="0 0 24 24" fill="none" xmlns="http://www.w3.org/2000/svg">
<path d="M16.6168 1H7.39419C3.38819 1 1 3.387 1 7.391V16.598C1 20.613 3.38819 23 7.39419 23H16.6058C20.6118 23 23 20.613 23 16.609V7.391C23.011 3.387 20.6228 1 16.6168 1Z" fill="#0B3BEC"/>
<mask id="mask0_8875_2431" style="mask-type:alpha" maskUnits="userSpaceOnUse" x="1" y="1" width="22" height="22">
<path d="M16.6168 1H7.39419C3.38819 1 1 3.387 1 7.391V16.598C1 20.613 3.38819 23 7.39419 23H16.6058C20.6118 23 23 20.613 23 16.609V7.391C23.011 3.387 20.6228 1 16.6168 1Z" fill="#B2CCFF"/>
</mask>
<g mask="url(#mask0_8875_2431)">
<path d="M0.75 17.625C0.75 20.725 3.275 23.25 6.375 23.25H17.625C20.725 23.25 23.25 20.725 23.25 17.625V7.625H0.75V17.625ZM8.875 11C8.875 10.7812 8.99375 10.575 9.18125 10.4625C9.375 10.35 9.6125 10.3437 9.80625 10.4562L15.4312 13.5812C15.625 13.6875 15.75 13.9 15.75 14.125C15.75 14.35 15.625 14.5625 15.4312 14.6688L9.80625 17.7937C9.70625 17.85 9.60625 17.875 9.5 17.875C9.3875 17.875 9.28125 17.8438 9.18125 17.7875C8.99375 17.675 8.875 17.4688 8.875 17.25V11ZM23.25 6.375C23.25 3.275 20.725 0.75 17.625 0.75H14.2063L17.9562 6.375H23.25ZM16.4625 6.375L12.7062 0.75H6.375C6.275 0.75 6.18125 0.75 6.0875 0.75625L9.83125 6.375H16.4625ZM4.75 0.99375C2.4375 1.6875 0.75 3.8375 0.75 6.375H8.3375L4.75 0.99375Z" fill="#B2CCFF"/>
</g>
</svg>
