<svg width="20" height="20" viewBox="0 0 20 20" fill="none" xmlns="http://www.w3.org/2000/svg">
<g clip-path="url(#clip0_9782_3392)">
<path d="M10 20C15.5228 20 20 15.5228 20 10C20 4.47715 15.5228 0 10 0C4.47715 0 0 4.47715 0 10C0 15.5228 4.47715 20 10 20Z" fill="white"/>
<path d="M19.3783 13.478C19.7802 12.3946 20.0002 11.2229 20.0002 9.99973C20.0002 8.77652 19.7802 7.6048 19.3783 6.52148H0.622236C0.220283 7.6048 0.000244141 8.77652 0.000244141 9.99973C0.000244141 11.2229 0.220283 12.3946 0.622236 13.478L10.0002 14.3475L19.3783 13.478Z" fill="#0052B4"/>
<path d="M10.0003 19.9993C14.3 19.9993 17.9654 17.2856 19.3783 13.4775H0.622314C2.03524 17.2856 5.70067 19.9993 10.0003 19.9993Z" fill="#D80027"/>
</g>
<defs>
<clipPath id="clip0_9782_3392">
<rect width="20" height="20" fill="white"/>
</clipPath>
</defs>
</svg>
