<svg width="20" height="21" viewBox="0 0 20 21" fill="none" xmlns="http://www.w3.org/2000/svg">
<path d="M7.82936 16.6427L8.3164 17.738C8.46118 18.0641 8.69747 18.3412 8.99659 18.5356C9.29571 18.73 9.64483 18.8335 10.0016 18.8334C10.3583 18.8335 10.7075 18.73 11.0066 18.5356C11.3057 18.3412 11.542 18.0641 11.6868 17.738L12.1738 16.6427C12.3472 16.254 12.6388 15.93 13.0071 15.7168C13.3778 15.5029 13.8066 15.4119 14.2321 15.4566L15.4238 15.5834C15.7785 15.6209 16.1365 15.5547 16.4544 15.3929C16.7722 15.231 17.0363 14.9803 17.2145 14.6714C17.393 14.3626 17.4781 14.0086 17.4593 13.6525C17.4406 13.2963 17.3189 12.9532 17.109 12.6649L16.4034 11.6955C16.1522 11.3477 16.018 10.9291 16.0201 10.5001C16.02 10.0722 16.1555 9.65537 16.4071 9.30934L17.1127 8.3399C17.3226 8.05154 17.4443 7.70847 17.463 7.35231C17.4818 6.99615 17.3967 6.6422 17.2183 6.33341C17.04 6.02444 16.7759 5.77382 16.4581 5.61194C16.1402 5.45005 15.7822 5.38386 15.4275 5.42138L14.2358 5.54823C13.8103 5.59292 13.3815 5.50185 13.0108 5.28804C12.6418 5.07363 12.3501 4.74788 12.1775 4.35749L11.6868 3.26212C11.542 2.93606 11.3057 2.65901 11.0066 2.46458C10.7075 2.27015 10.3583 2.16669 10.0016 2.16675C9.64483 2.16669 9.29571 2.27015 8.99659 2.46458C8.69747 2.65901 8.46118 2.93606 8.3164 3.26212L7.82936 4.35749C7.6568 4.74788 7.36509 5.07363 6.99603 5.28804C6.62538 5.50185 6.19659 5.59292 5.77103 5.54823L4.57566 5.42138C4.22094 5.38386 3.86294 5.45005 3.54509 5.61194C3.22724 5.77382 2.96317 6.02444 2.78492 6.33341C2.60644 6.6422 2.52141 6.99615 2.54014 7.35231C2.55888 7.70847 2.68058 8.05154 2.89048 8.3399L3.59603 9.30934C3.84765 9.65537 3.98315 10.0722 3.98307 10.5001C3.98315 10.9279 3.84765 11.3448 3.59603 11.6908L2.89048 12.6603C2.68058 12.9486 2.55888 13.2917 2.54014 13.6479C2.52141 14.004 2.60644 14.358 2.78492 14.6667C2.96335 14.9756 3.22744 15.226 3.54525 15.3879C3.86306 15.5498 4.22096 15.6161 4.57566 15.5788L5.76733 15.4519C6.19288 15.4072 6.62167 15.4983 6.99233 15.7121C7.36277 15.9259 7.65583 16.2517 7.82936 16.6427Z" stroke="#98A2B3" stroke-width="1.5" stroke-linecap="round" stroke-linejoin="round"/>
<path d="M10.0001 13.0001C11.3808 13.0001 12.5001 11.8808 12.5001 10.5001C12.5001 9.11937 11.3808 8.00008 10.0001 8.00008C8.61939 8.00008 7.5001 9.11937 7.5001 10.5001C7.5001 11.8808 8.61939 13.0001 10.0001 13.0001Z" stroke="#98A2B3" stroke-width="1.5" stroke-linecap="round" stroke-linejoin="round"/>
</svg>
