<svg width="36" height="37" viewBox="0 0 36 37" fill="none" xmlns="http://www.w3.org/2000/svg">
<path d="M0 12.5C0 5.87258 5.37258 0.5 12 0.5H24C30.6274 0.5 36 5.87258 36 12.5V24.5C36 31.1274 30.6274 36.5 24 36.5H12C5.37258 36.5 0 31.1274 0 24.5V12.5Z" fill="#2D384B"/>
<path d="M15.8294 24.6427L16.3164 25.738C16.4612 26.0641 16.6975 26.3412 16.9966 26.5356C17.2957 26.73 17.6448 26.8335 18.0016 26.8334C18.3583 26.8335 18.7075 26.73 19.0066 26.5356C19.3057 26.3412 19.542 26.0641 19.6868 25.738L20.1738 24.6427C20.3472 24.254 20.6388 23.93 21.0071 23.7168C21.3778 23.5029 21.8066 23.4119 22.2321 23.4566L23.4238 23.5834C23.7785 23.6209 24.1365 23.5547 24.4544 23.3929C24.7722 23.231 25.0363 22.9803 25.2145 22.6714C25.393 22.3626 25.4781 22.0086 25.4593 21.6525C25.4406 21.2963 25.3189 20.9532 25.109 20.6649L24.4034 19.6955C24.1522 19.3477 24.018 18.9291 24.0201 18.5001C24.02 18.0722 24.1555 17.6554 24.4071 17.3093L25.1127 16.3399C25.3226 16.0515 25.4443 15.7085 25.463 15.3523C25.4818 14.9961 25.3967 14.6422 25.2183 14.3334C25.04 14.0244 24.7759 13.7738 24.4581 13.6119C24.1402 13.4501 23.7822 13.3839 23.4275 13.4214L22.2358 13.5482C21.8103 13.5929 21.3815 13.5018 21.0108 13.288C20.6418 13.0736 20.3501 12.7479 20.1775 12.3575L19.6868 11.2621C19.542 10.9361 19.3057 10.659 19.0066 10.4646C18.7075 10.2702 18.3583 10.1667 18.0016 10.1667C17.6448 10.1667 17.2957 10.2702 16.9966 10.4646C16.6975 10.659 16.4612 10.9361 16.3164 11.2621L15.8294 12.3575C15.6568 12.7479 15.3651 13.0736 14.996 13.288C14.6254 13.5018 14.1966 13.5929 13.771 13.5482L12.5757 13.4214C12.2209 13.3839 11.8629 13.4501 11.5451 13.6119C11.2272 13.7738 10.9632 14.0244 10.7849 14.3334C10.6064 14.6422 10.5214 14.9961 10.5401 15.3523C10.5589 15.7085 10.6806 16.0515 10.8905 16.3399L11.596 17.3093C11.8476 17.6554 11.9831 18.0722 11.9831 18.5001C11.9831 18.9279 11.8476 19.3448 11.596 19.6908L10.8905 20.6603C10.6806 20.9486 10.5589 21.2917 10.5401 21.6479C10.5214 22.004 10.6064 22.358 10.7849 22.6667C10.9633 22.9756 11.2274 23.226 11.5453 23.3879C11.8631 23.5498 12.221 23.6161 12.5757 23.5788L13.7673 23.4519C14.1929 23.4072 14.6217 23.4983 14.9923 23.7121C15.3628 23.9259 15.6558 24.2517 15.8294 24.6427Z" stroke="#98A2B3" stroke-width="1.5" stroke-linecap="round" stroke-linejoin="round"/>
<path d="M18.0001 21.0001C19.3808 21.0001 20.5001 19.8808 20.5001 18.5001C20.5001 17.1194 19.3808 16.0001 18.0001 16.0001C16.6194 16.0001 15.5001 17.1194 15.5001 18.5001C15.5001 19.8808 16.6194 21.0001 18.0001 21.0001Z" stroke="#98A2B3" stroke-width="1.5" stroke-linecap="round" stroke-linejoin="round"/>
</svg>
