<svg width="24" height="24" viewBox="0 0 24 24" fill="none" xmlns="http://www.w3.org/2000/svg">
<rect x="4" y="3" width="16" height="19" fill="#0B3BEC"/>
<path d="M5.73725 0.912354H20.3504C20.7092 0.912354 21 1.20323 21 1.56202V19.0001H20V20.0001L21 22.0001V22.4379C21 22.7967 20.7091 23.0876 20.3503 23.0876H5.73721C4.22795 23.0876 3 21.8597 3 20.3503V3.64956C3 2.14026 4.22795 0.912354 5.73725 0.912354Z" fill="#B2CCFF"/>
<path d="M6.40045 22H20V19H6.40045C5.65492 19 5.0437 19.6272 5.0024 20.415C5.00089 20.4432 5 20.4715 5 20.5C5 21.3271 5.62822 22 6.40045 22Z" fill="#0B3BEC"/>
<path d="M7.23925 9.1033C7.14321 9.1794 7.07174 9.27923 7.03293 9.3915C6.99413 9.5038 6.98952 9.62405 7.01962 9.73867C7.04972 9.8533 7.11333 9.95773 7.20326 10.0402L9.11327 11.7898L8.66228 14.2603C8.64569 14.3511 8.65041 14.4443 8.67611 14.5332C8.70182 14.6221 8.74789 14.7047 8.8111 14.7752C8.87431 14.8456 8.95313 14.9022 9.04206 14.9411C9.13098 14.9799 9.22786 15 9.32592 15C9.43507 15 9.54257 14.975 9.63916 14.9273L12 13.7608L14.3608 14.9273C14.4594 14.976 14.5669 15 14.674 15H14.676C15.0474 14.9995 15.3483 14.7164 15.3483 14.3673C15.3483 14.3187 15.3425 14.2714 15.3314 14.2259L14.8869 11.7898L16.7966 10.0401C16.8866 9.95768 16.9503 9.85326 16.9804 9.73864C17.0105 9.62402 17.0059 9.50376 16.967 9.39148C16.9282 9.27919 16.8567 9.17936 16.7607 9.10327C16.6646 9.02718 16.5478 8.97787 16.4235 8.96092L13.7841 8.60052L12.6037 6.35273C12.5481 6.24685 12.4621 6.1577 12.3554 6.09536C12.2487 6.03303 12.1256 6 12 6C11.8743 6 11.7512 6.03305 11.6445 6.09539C11.5378 6.15773 11.4518 6.24689 11.3963 6.35277L10.216 8.60052L7.57638 8.96092C7.45207 8.97789 7.33529 9.02721 7.23925 9.1033Z" fill="#0B3BEC"/>
</svg>
