<svg width="24" height="24" viewBox="0 0 24 24" fill="none" xmlns="http://www.w3.org/2000/svg">
<path d="M16.6168 1H7.39419C3.38819 1 1 3.387 1 7.391V16.598C1 20.613 3.38819 23 7.39419 23H16.6058C20.6118 23 23 20.613 23 16.609V7.391C23.011 3.387 20.6228 1 16.6168 1Z" fill="#B42318"/>
<path fill-rule="evenodd" clip-rule="evenodd" d="M12.2905 5.4095L18.587 11.706C18.8425 11.9615 19 12.3115 19 12.7C19 13.085 18.8425 13.435 18.5905 13.6905L13.6905 18.5905C13.4385 18.8425 13.085 19 12.7 19C12.315 19 11.965 18.8425 11.713 18.5905L5.41301 12.2905C5.1575 12.0385 5 11.6885 5 11.3V6.40001C5 5.62649 5.62649 5 6.40001 5H11.3C11.685 5 12.035 5.1575 12.2905 5.4095ZM8.5 10C9.32843 10 10 9.32843 10 8.5C10 7.67157 9.32843 7 8.5 7C7.67157 7 7 7.67157 7 8.5C7 9.32843 7.67157 10 8.5 10Z" fill="#F04438"/>
</svg>
