<svg width="21" height="20" viewBox="0 0 21 20" fill="none" xmlns="http://www.w3.org/2000/svg">
<path d="M16.3333 17.5H17.1753C17.9846 17.5 18.3892 17.5 18.6123 17.3313C18.8066 17.1843 18.9269 16.9596 18.9414 16.7163C18.958 16.4371 18.7336 16.1004 18.2847 15.4271L15.776 11.6641C15.4051 11.1077 15.2196 10.8295 14.9858 10.7325C14.7815 10.6478 14.5518 10.6478 14.3474 10.7325C14.1136 10.8295 13.9282 11.1077 13.5572 11.6641L12.9371 12.5943M16.3333 17.5L9.92954 8.25015C9.56126 7.71818 9.37712 7.4522 9.1471 7.3587C8.94589 7.2769 8.72069 7.2769 8.51947 7.3587C8.28946 7.4522 8.10531 7.71818 7.73703 8.25015L2.78179 15.4077C2.3126 16.0854 2.078 16.4243 2.09136 16.7061C2.10299 16.9515 2.22234 17.1793 2.41751 17.3286C2.64162 17.5 3.05376 17.5 3.87804 17.5H16.3333ZM18 5C18 6.38071 16.8807 7.5 15.5 7.5C14.1192 7.5 13 6.38071 13 5C13 3.61929 14.1192 2.5 15.5 2.5C16.8807 2.5 18 3.61929 18 5Z" stroke="#0B3BEC" stroke-width="1.5" stroke-linecap="round" stroke-linejoin="round"/>
</svg>
