<svg width="21" height="20" viewBox="0 0 21 20" fill="none" xmlns="http://www.w3.org/2000/svg">
<path d="M11.3335 11.6667L8.83345 9.16675M13.0087 2.91675V1.66675M16.2915 4.2173L17.1754 3.33341M16.2915 10.8334L17.1754 11.7173M9.67541 4.2173L8.79153 3.33341M17.5921 7.50008H18.8421M5.60959 17.3906L13.3073 9.69289C13.6373 9.36288 13.8023 9.19787 13.8642 9.0076C13.9185 8.84023 13.9185 8.65994 13.8642 8.49257C13.8023 8.30229 13.6373 8.13729 13.3073 7.80727L12.6929 7.19289C12.3629 6.86288 12.1979 6.69787 12.0076 6.63605C11.8403 6.58166 11.66 6.58166 11.4926 6.63605C11.3023 6.69787 11.1373 6.86288 10.8073 7.19289L3.10959 14.8906C2.77958 15.2206 2.61457 15.3856 2.55275 15.5759C2.49837 15.7433 2.49837 15.9236 2.55275 16.0909C2.61457 16.2812 2.77958 16.4462 3.10959 16.7762L3.72398 17.3906C4.05399 17.7206 4.219 17.8856 4.40927 17.9475C4.57664 18.0018 4.75693 18.0018 4.9243 17.9475C5.11457 17.8856 5.27958 17.7206 5.60959 17.3906Z" stroke="#0B3BEC" stroke-width="1.5" stroke-linecap="round" stroke-linejoin="round"/>
</svg>
