<svg width="24" height="24" viewBox="0 0 24 24" fill="none" xmlns="http://www.w3.org/2000/svg">
<path d="M12 23C18.0751 23 23 18.0751 23 12C23 5.92487 18.0751 1 12 1C5.92487 1 1 5.92487 1 12C1 18.0751 5.92487 23 12 23Z" fill="url(#paint0_linear_8875_2367)"/>
<path fill-rule="evenodd" clip-rule="evenodd" d="M5.97918 11.884C9.18591 10.4868 11.3242 9.56577 12.3941 9.12076C15.449 7.85015 16.0837 7.62944 16.4974 7.62215C16.5884 7.62055 16.7919 7.6431 16.9237 7.75004C17.035 7.84034 17.0656 7.96232 17.0803 8.04793C17.0949 8.13354 17.1132 8.32857 17.0986 8.48097C16.9331 10.2203 16.2168 14.4413 15.8524 16.3894C15.6982 17.2137 15.3946 17.4901 15.1007 17.5172C14.4619 17.5759 13.9768 17.095 13.3581 16.6894C12.39 16.0548 11.843 15.6598 10.9033 15.0405C9.81722 14.3248 10.5213 13.9314 11.1402 13.2886C11.3022 13.1203 14.1167 10.5603 14.1712 10.3281C14.178 10.299 14.1843 10.1908 14.12 10.1336C14.0557 10.0764 13.9607 10.096 13.8922 10.1115C13.7951 10.1336 12.2485 11.1558 9.25237 13.1783C8.81337 13.4798 8.41573 13.6266 8.05946 13.6189C7.66671 13.6105 6.9112 13.3969 6.34956 13.2143C5.66068 12.9904 5.11318 12.872 5.16085 12.4917C5.18569 12.2936 5.45846 12.091 5.97918 11.884Z" fill="white"/>
<defs>
<linearGradient id="paint0_linear_8875_2367" x1="1101" y1="1" x2="1101" y2="2184.68" gradientUnits="userSpaceOnUse">
<stop stop-color="#2AABEE"/>
<stop offset="1" stop-color="#229ED9"/>
</linearGradient>
</defs>
</svg>
