<svg width="36" height="37" viewBox="0 0 36 37" fill="none" xmlns="http://www.w3.org/2000/svg">
<path d="M0 12.5C0 5.87258 5.37258 0.5 12 0.5H24C30.6274 0.5 36 5.87258 36 12.5V24.5C36 31.1274 30.6274 36.5 24 36.5H12C5.37258 36.5 0 31.1274 0 24.5V12.5Z" fill="#2D384B"/>
<path d="M18.0001 10.1667V11.8334M18.0001 25.1667V26.8334M11.3334 18.5001H9.66675M13.2618 13.7618L12.0833 12.5833M22.7383 13.7618L23.9168 12.5833M13.2618 23.2417L12.0833 24.4203M22.7383 23.2417L23.9168 24.4203M26.3334 18.5001H24.6667M22.1667 18.5001C22.1667 20.8013 20.3013 22.6667 18.0001 22.6667C15.6989 22.6667 13.8334 20.8013 13.8334 18.5001C13.8334 16.1989 15.6989 14.3334 18.0001 14.3334C20.3013 14.3334 22.1667 16.1989 22.1667 18.5001Z" stroke="#98A2B3" stroke-width="1.5" stroke-linecap="round" stroke-linejoin="round"/>
</svg>
