<svg width="24" height="24" viewBox="0 0 24 24" fill="none" xmlns="http://www.w3.org/2000/svg">
<path d="M1 11.56C1 6.58195 1 4.09295 2.54648 2.54648C4.09295 1 6.58195 1 11.56 1H12.44C17.4181 1 19.907 1 21.4535 2.54648C23 4.09295 23 6.58195 23 11.56V12.44C23 17.4181 23 19.907 21.4535 21.4535C19.907 23 17.4181 23 12.44 23H11.56C6.58195 23 4.09295 23 2.54648 21.4535C1 19.907 1 17.4181 1 12.44V11.56Z" fill="black"/>
<path d="M15.7949 11.4157C15.726 11.3827 15.656 11.3509 15.5851 11.3204C15.4616 9.04485 14.2182 7.74208 12.1303 7.72875C12.1209 7.72869 12.1115 7.72869 12.102 7.72869C10.8532 7.72869 9.81459 8.26174 9.17533 9.23173L10.3236 10.0194C10.8011 9.29486 11.5506 9.1404 12.1025 9.1404C12.1089 9.1404 12.1153 9.1404 12.1216 9.14046C12.8091 9.14484 13.3278 9.34472 13.6636 9.7345C13.9079 10.0183 14.0713 10.4104 14.1522 10.9053C13.5427 10.8017 12.8836 10.7699 12.1789 10.8103C10.1939 10.9246 8.91775 12.0823 9.00346 13.691C9.04695 14.507 9.45347 15.209 10.1481 15.6676C10.7354 16.0553 11.4917 16.2448 12.2779 16.2019C13.316 16.145 14.1304 15.7489 14.6986 15.0247C15.1301 14.4747 15.403 13.7619 15.5235 12.8638C16.0182 13.1624 16.3849 13.5553 16.5874 14.0277C16.9317 14.8306 16.9518 16.15 15.8752 17.2257C14.932 18.168 13.7982 18.5757 12.0846 18.5883C10.1838 18.5742 8.74631 17.9646 7.81167 16.7764C6.93645 15.6638 6.48414 14.0568 6.46726 12C6.48414 9.94315 6.93645 8.33613 7.81167 7.22356C8.74631 6.03541 10.1838 5.42583 12.0846 5.41171C13.9992 5.42594 15.4617 6.03845 16.4322 7.23233C16.908 7.8178 17.2667 8.55407 17.5032 9.41253L18.8488 9.05352C18.5622 7.99685 18.1111 7.08631 17.4972 6.33117C16.2532 4.80056 14.4337 4.01626 12.0893 4H12.0799C9.7403 4.01621 7.94117 4.80348 6.73252 6.33994C5.65699 7.7072 5.1022 9.60964 5.08355 11.9944L5.0835 12L5.08355 12.0056C5.1022 14.3903 5.65699 16.2928 6.73252 17.6601C7.94117 19.1965 9.7403 19.9838 12.0799 20H12.0893C14.1693 19.9856 15.6355 19.441 16.8433 18.2343C18.4236 16.6555 18.376 14.6766 17.8552 13.4618C17.4815 12.5906 16.7691 11.883 15.7949 11.4157ZM12.2035 14.7923C11.3335 14.8413 10.4297 14.4508 10.3851 13.6143C10.3521 12.9942 10.8265 12.3022 12.2569 12.2197C12.4207 12.2103 12.5815 12.2057 12.7394 12.2057C13.259 12.2057 13.7451 12.2561 14.187 12.3528C14.0222 14.4113 13.0553 14.7455 12.2035 14.7923Z" fill="white"/>
</svg>
