<svg width="24" height="24" viewBox="0 0 24 24" fill="none" xmlns="http://www.w3.org/2000/svg">
<path d="M1 11.56C1 6.58195 1 4.09295 2.54648 2.54648C4.09295 1 6.58195 1 11.56 1H12.44C17.4181 1 19.907 1 21.4535 2.54648C23 4.09295 23 6.58195 23 11.56V12.44C23 17.4181 23 19.907 21.4535 21.4535C19.907 23 17.4181 23 12.44 23H11.56C6.58195 23 4.09295 23 2.54648 21.4535C1 19.907 1 17.4181 1 12.44V11.56Z" fill="#0077FF"/>
<path d="M12.7059 16.8492C7.69177 16.8492 4.83181 13.4117 4.71265 7.69165H7.22431C7.30681 11.89 9.15843 13.6683 10.6251 14.035V7.69165H12.9902V11.3125C14.4385 11.1567 15.96 9.50665 16.4733 7.69165H18.8384C18.4442 9.92832 16.7942 11.5783 15.6209 12.2567C16.7942 12.8067 18.6735 14.2458 19.3885 16.8492H16.7851C16.2259 15.1075 14.8327 13.76 12.9902 13.5767V16.8492H12.7059Z" fill="white"/>
</svg>
