<svg width="24" height="24" viewBox="0 0 24 24" fill="none" xmlns="http://www.w3.org/2000/svg">
<path d="M1.5 11.4833C1.5 6.77768 1.5 4.42025 2.96244 2.96243C4.42026 1.5 6.77769 1.5 11.4833 1.5H12.5167C17.2224 1.5 19.5751 1.5 21.0376 2.96243C22.5 4.42487 22.5 6.77768 22.5 11.4833V12.5167C22.5 17.2224 22.5 19.5751 21.0376 21.0375C19.5751 22.5 17.2224 22.5 12.5167 22.5H11.4833C6.77769 22.5 4.42487 22.5 2.96244 21.0375C1.5 19.5751 1.5 17.2224 1.5 12.5167V11.4833Z" fill="#0077FF"/>
<path d="M11.9595 18.8103C15.7431 18.8103 18.8103 15.7431 18.8103 11.9595C18.8103 8.17586 15.7431 5.10864 11.9595 5.10864C8.17588 5.10864 5.10864 8.17586 5.10864 11.9595C5.10864 15.7431 8.17588 18.8103 11.9595 18.8103Z" fill="#00D9ED"/>
<path fill-rule="evenodd" clip-rule="evenodd" d="M18.3379 4.27431V5.58911H19.6342C20.3724 5.58911 20.7506 6.47489 20.2385 7.00542L18.4624 8.85999C18.3055 9.02606 18.0841 9.11833 17.8581 9.11833H16.1788L14.4396 10.9913C14.5641 11.2912 14.638 11.6234 14.638 11.9694C14.638 13.358 13.5123 14.4836 12.1236 14.4836C10.7351 14.4836 9.60938 13.358 9.60938 11.9694C9.60938 10.5808 10.7351 9.45511 12.1236 9.45511C12.3589 9.45511 12.5896 9.48741 12.8064 9.54738L14.8041 7.39756V6.01816C14.8041 5.78749 14.9009 5.56605 15.067 5.4092L16.9216 3.66074C17.4567 3.15788 18.3332 3.53617 18.3332 4.2697L18.3379 4.27431Z" fill="white"/>
</svg>
