<svg width="24" height="24" viewBox="0 0 24 24" fill="none" xmlns="http://www.w3.org/2000/svg">
<path d="M16.6168 1H7.39419C3.38819 1 1 3.387 1 7.391V16.598C1 20.613 3.38819 23 7.39419 23H16.6058C20.6118 23 23 20.613 23 16.609V7.391C23.011 3.387 20.6228 1 16.6168 1Z" fill="#B2CCFF"/>
<path d="M5.82419 8.80215C5.28193 8.23092 5.01079 7.94531 5.00057 7.70257C4.99168 7.49171 5.08782 7.28903 5.26047 7.15467C5.45922 7 5.86585 7 6.67909 7H17.3209C18.1342 7 18.5408 7 18.7395 7.15467C18.9122 7.28903 19.0083 7.49171 18.9994 7.70257C18.9892 7.94531 18.7181 8.23092 18.1758 8.80215L14.0846 13.1118C13.9766 13.2257 13.9225 13.2826 13.884 13.3474C13.8498 13.4049 13.8247 13.4668 13.8095 13.5311C13.7924 13.6036 13.7924 13.68 13.7924 13.8328V17.4461C13.7924 17.5782 13.7924 17.6443 13.7698 17.7014C13.7498 17.7519 13.7173 17.7972 13.675 17.8334C13.6271 17.8744 13.562 17.8989 13.4319 17.948L10.9942 18.8671C10.7307 18.9664 10.5989 19.0161 10.4931 18.9954C10.4006 18.9772 10.3195 18.9254 10.2673 18.8512C10.2076 18.7664 10.2076 18.6326 10.2076 18.3651V13.8328C10.2076 13.68 10.2076 13.6036 10.1905 13.5311C10.1753 13.4668 10.1502 13.4049 10.116 13.3474C10.0775 13.2826 10.0234 13.2257 9.91535 13.1118L5.82419 8.80215Z" fill="#0B3BEC"/>
</svg>
