<svg width="24" height="24" viewBox="0 0 24 24" fill="none" xmlns="http://www.w3.org/2000/svg">
<mask id="mask0_8875_2926" style="mask-type:luminance" maskUnits="userSpaceOnUse" x="1" y="1" width="22" height="22">
<path d="M22.5 12C22.5 6.20101 17.799 1.5 12 1.5C6.20101 1.5 1.5 6.20101 1.5 12C1.5 17.799 6.20101 22.5 12 22.5C17.799 22.5 22.5 17.799 22.5 12Z" fill="white"/>
</mask>
<g mask="url(#mask0_8875_2926)">
<path d="M22.499 12C22.499 6.20101 17.798 1.5 11.999 1.5C6.20003 1.5 1.49902 6.20101 1.49902 12C1.49902 17.799 6.20003 22.5 11.999 22.5C17.798 22.5 22.499 17.799 22.499 12Z" fill="url(#paint0_linear_8875_2926)"/>
<path d="M27.1766 2.84677C27.7545 3.242 28.1616 3.84113 28.3162 4.52397C28.4688 5.19767 28.3728 5.90379 28.0459 6.51231C27.7191 7.12084 27.1834 7.5908 26.5375 7.83567L26.0832 22.2081C25.5869 23.6844 19.6082 24.4943 18.1263 24.0176C17.775 23.9056 17.4494 23.7247 17.1688 23.4855C16.8881 23.2463 16.6579 22.9535 16.4917 22.6244C16.3254 22.2952 16.2264 21.9362 16.2005 21.5683C16.1746 21.2005 16.2222 20.8311 16.3406 20.4819L18.1284 15.1598L-6.71806 37.963L-10.6724 33.6545L14.1594 10.8653L8.74703 12.1813C8.38889 12.2693 8.01679 12.2852 7.65246 12.2278C7.28814 12.1704 6.93891 12.041 6.62517 11.8471C6.31143 11.6532 6.03948 11.3987 5.82521 11.0986C5.61094 10.7984 5.45865 10.4585 5.37724 10.0988C5.21136 9.36695 5.33943 8.59926 5.73388 7.96092C6.12832 7.32257 6.75762 6.8646 7.48633 6.68557L22.2024 3.10857C22.505 2.49165 23.0191 2.00396 23.6512 1.73439C24.2832 1.46482 24.9911 1.43131 25.6457 1.63997C26.3135 1.85487 26.842 2.29377 27.1766 2.84677Z" fill="url(#paint1_linear_8875_2926)"/>
<path d="M27.1766 2.84677C27.7545 3.242 28.1616 3.84113 28.3162 4.52397C28.4688 5.19767 28.3728 5.90379 28.0459 6.51231C27.7191 7.12084 27.1834 7.5908 26.5375 7.83567L26.0832 22.2081C25.5869 23.6844 19.6082 24.4943 18.1263 24.0176C17.775 23.9056 17.4494 23.7247 17.1688 23.4855C16.8881 23.2463 16.6579 22.9535 16.4917 22.6244C16.3254 22.2952 16.2264 21.9362 16.2005 21.5683C16.1746 21.2005 16.2222 20.8311 16.3406 20.4819L18.1284 15.1598L-6.71806 37.963L-10.6724 33.6545L14.1594 10.8653L8.74703 12.1813C8.38889 12.2693 8.01679 12.2852 7.65246 12.2278C7.28814 12.1704 6.93891 12.041 6.62517 11.8471C6.31143 11.6532 6.03948 11.3987 5.82521 11.0986C5.61094 10.7984 5.45865 10.4585 5.37724 10.0988C5.21136 9.36695 5.33943 8.59926 5.73388 7.96092C6.12832 7.32257 6.75762 6.8646 7.48633 6.68557L22.2024 3.10857C22.505 2.49165 23.0191 2.00396 23.6512 1.73439C24.2832 1.46482 24.9911 1.43131 25.6457 1.63997C26.3135 1.85487 26.842 2.29377 27.1766 2.84677Z" fill="url(#paint2_linear_8875_2926)"/>
</g>
<defs>
<linearGradient id="paint0_linear_8875_2926" x1="22.499" y1="21.5956" x2="-10.401" y2="-8.9419" gradientUnits="userSpaceOnUse">
<stop offset="0.01" stop-color="#3E3BA0"/>
<stop offset="1" stop-color="#498BFF"/>
</linearGradient>
<linearGradient id="paint1_linear_8875_2926" x1="95.7941" y1="51.1174" x2="-29.2917" y2="65.7271" gradientUnits="userSpaceOnUse">
<stop stop-color="#FFB800"/>
<stop offset="1" stop-color="#FFF11D"/>
</linearGradient>
<linearGradient id="paint2_linear_8875_2926" x1="-10.6724" y1="34.1382" x2="84.1797" y2="-16.1169" gradientUnits="userSpaceOnUse">
<stop stop-color="#FFF11D"/>
<stop offset="1" stop-color="#FFB800"/>
</linearGradient>
</defs>
</svg>
